<svg width="73" height="17" viewBox="0 0 73 17" fill="none" xmlns="http://www.w3.org/2000/svg">
<path d="M16.4994 15.7226C13.4259 15.7226 10.6552 15.7226 7.89216 15.7226C6.23922 15.7176 4.63332 15.1663 3.31971 14.1528C2.00609 13.1392 1.05697 11.7193 0.617297 10.1097C0.152894 8.40752 0.265813 6.59734 0.938055 4.96755C1.6103 3.33777 2.80319 1.98215 4.32664 1.11671C5.78083 0.254425 7.47838 -0.0927322 9.15007 0.130302C10.8218 0.353336 12.3719 1.13379 13.5546 2.34789C14.7506 3.53468 15.5314 5.0828 15.7786 6.75788C16.0258 8.43296 15.7261 10.1438 14.9248 11.6314C14.5993 12.2279 14.2132 12.7938 13.7211 13.5891L16.3707 13.7726L16.4994 15.7226ZM2.40384 7.83083C2.36713 8.60332 2.48464 9.37537 2.74937 10.101C3.0141 10.8267 3.42065 11.4912 3.94481 12.0549C4.46897 12.6186 5.10003 13.07 5.80045 13.3823C6.50086 13.6945 7.2563 13.8613 8.02181 13.8726C8.78732 13.8838 9.54726 13.7394 10.2564 13.448C10.9655 13.1565 11.6094 12.7239 12.1496 12.1759C12.6898 11.6279 13.1154 10.9757 13.401 10.2581C13.6866 9.54057 13.8263 8.77231 13.812 7.99907C13.8497 7.22725 13.7334 6.45566 13.4701 5.73013C13.2068 5.00459 12.8018 4.33993 12.2792 3.77563C11.7566 3.21133 11.127 2.7589 10.4279 2.44524C9.72879 2.13157 8.97439 1.96307 8.20953 1.94974C7.44467 1.93641 6.68496 2.07852 5.97554 2.36764C5.26612 2.65676 4.62148 3.08697 4.0799 3.63273C3.53833 4.17848 3.11088 4.82864 2.82295 5.54456C2.53503 6.26049 2.3925 7.02758 2.40384 7.80024V7.83083Z" fill="#121212"/>
<path d="M26.175 15.7302C25.1505 15.7304 24.1362 15.524 23.1917 15.1232C22.2471 14.7224 21.3912 14.1351 20.6742 13.3958C19.9572 12.6566 19.3934 11.7802 19.016 10.818C18.6386 9.85585 18.4551 8.82726 18.4763 7.79253C18.5603 5.74186 19.4326 3.80511 20.9078 2.39387C22.3831 0.982636 24.345 0.208167 26.3766 0.235052C28.4082 0.261938 30.3493 1.08806 31.7875 2.53785C33.2256 3.98764 34.0474 5.94681 34.0782 7.999C34.0444 10.0827 33.1929 12.0675 31.7109 13.5172C30.2289 14.9669 28.2377 15.7629 26.175 15.7302ZM31.9889 7.82311C31.9935 7.05207 31.8449 6.28792 31.5521 5.57588C31.2592 4.86384 30.8279 4.21837 30.2837 3.67767C29.7395 3.13697 29.0935 2.71202 28.3839 2.42795C27.6743 2.14389 26.9155 2.00649 26.1524 2.02389C25.3893 2.04128 24.6374 2.21311 23.9412 2.52921C23.2449 2.84531 22.6186 3.29926 22.0991 3.8642C21.5796 4.42915 21.1776 5.0936 20.9168 5.81826C20.656 6.54292 20.5417 7.31306 20.5807 8.08312C20.5761 8.85416 20.7247 9.61831 21.0175 10.3304C21.3104 11.0424 21.7417 11.6879 22.2859 12.2286C22.8301 12.7693 23.4761 13.1942 24.1857 13.4783C24.8953 13.7623 25.6541 13.8997 26.4172 13.8823C27.1803 13.865 27.9322 13.6931 28.6285 13.377C29.3247 13.0609 29.951 12.607 30.4705 12.042C30.99 11.4771 31.392 10.8126 31.6528 10.088C31.9136 9.36331 32.0279 8.59317 31.9889 7.82311Z" fill="#121212"/>
<path d="M52.548 6.85921H59.4368V8.76333H52.6238V13.6574H60.5799L60.7086 15.5539H50.6328V0.351562H60.2241V2.14097H52.548V6.85921Z" fill="#121212"/>
<path d="M71.9042 1.3001L71.2002 2.73775C70.2712 2.41292 69.3198 2.15734 68.3538 1.97304C67.6145 1.88353 66.8647 1.98346 66.1736 2.26363C65.8537 2.37011 65.571 2.56769 65.3595 2.8326C65.1481 3.09751 65.0168 3.41848 64.9817 3.75692C64.9465 4.09536 65.0088 4.43686 65.1612 4.74036C65.3136 5.04386 65.5495 5.29645 65.8405 5.46775C66.9691 6.15202 68.1427 6.75755 69.3531 7.2801C70.9579 8.09834 72.1161 9.23775 72.1086 11.2336C72.1716 12.304 71.826 13.358 71.1431 14.1787C70.4601 14.9995 69.4917 15.5246 68.4371 15.646C67.3585 15.8161 66.2572 15.7685 65.1969 15.506C64.1366 15.2435 63.1384 14.7713 62.2599 14.1166L63.0169 12.7477C63.2053 12.7816 63.3903 12.8328 63.5695 12.9007C64.9851 13.6272 66.4159 14.2772 68.0661 13.7725C68.5656 13.6803 69.0248 13.4349 69.3811 13.0695C69.7374 12.7041 69.9735 12.2366 70.0571 11.7307C70.1269 11.2528 70.0415 10.7649 69.8135 10.3402C69.5856 9.91556 69.2275 9.57701 68.7929 9.3754C67.8693 8.8401 66.8776 8.42716 65.9162 7.96834C63.4333 6.79069 62.5021 5.16187 63.085 3.04363C63.6074 1.16246 65.6967 -0.0763676 68.0661 0.122456C68.6316 0.156497 69.1922 0.24874 69.7391 0.397751C70.3902 0.627162 71.0109 0.933044 71.9042 1.3001Z" fill="#121212"/>
<path d="M45.441 0.352822H47.712C45.5016 5.65223 43.3819 10.7452 41.0731 16.3046L34.4492 0.352822L36.7202 0.230469C38.1737 3.86282 39.5969 7.434 41.1715 11.3569L45.441 0.352822Z" fill="#121212"/>
</svg>
