<svg width="30" height="30" viewBox="0 0 30 30" fill="none" xmlns="http://www.w3.org/2000/svg">
<rect width="30" height="30" fill="#DBDBDB"/>
<path d="M13.872 14.712C13.808 13.704 14.208 13.256 15.104 12.872C16.08 12.456 16.384 11.896 16.384 11.16C16.384 10.12 15.792 9.528 14.64 9.528C13.296 9.528 12.704 10.312 12.64 11.528H11.088C11.12 9.384 12.464 8.12 14.624 8.12C16.608 8.12 17.984 9.224 17.984 11.08C17.984 12.328 17.264 13.464 15.808 14.04C15.408 14.2 15.28 14.424 15.248 14.808L15.2 15.48H13.92L13.872 14.712ZM13.648 19V17.208H15.472V19H13.648Z" fill="#7D828E"/>
</svg>
